<?xml version="1.0" encoding="utf-8"?>
<!-- Generator: Adobe Illustrator 25.4.1, SVG Export Plug-In . SVG Version: 6.00 Build 0)  -->
<svg version="1.1" id="Layer_1" xmlns="http://www.w3.org/2000/svg" xmlns:xlink="http://www.w3.org/1999/xlink" x="0px" y="0px"
	 viewBox="0 0 252 144" style="enable-background:new 0 0 252 144;" xml:space="preserve">
<style type="text/css">
	.st0{fill:#295A94;}
	.st1{fill:#AD473D;}
</style>
<g>
	<path class="st0" d="M129.19,5.2c6,0.44,15.24,0.91,24.43,1.87c8.49,0.88,16.81,2.87,25.08,5.03c11.39,2.98,22.33,7.12,32.65,12.73
		c9.65,5.25,18.52,11.61,25.44,20.33c4.7,5.91,8.14,12.47,9.63,19.9c1.64,8.12,0.41,15.96-3.05,23.45
		c-4.5,9.76-11.7,17.19-20.24,23.49c-9.51,7.01-20,12.16-31.08,16.07c-5.55,1.96-11.25,3.54-16.96,5.03
		c-5.04,1.31-10.15,2.49-15.29,3.31c-5.77,0.91-11.61,1.65-17.44,1.92c-8.86,0.41-17.76,0.64-26.62,0.38
		c-6.83-0.2-13.67-1.11-20.46-2.02c-5.69-0.77-11.36-1.79-16.94-3.11c-5.53-1.31-10.98-3-16.39-4.77
		c-7.38-2.41-14.48-5.53-21.29-9.26c-8.47-4.64-16.36-10.11-22.89-17.29C12.47,96.41,8.25,89.8,6.21,82.12
		c-1.23-4.62-1.7-9.35-1.07-14.25c1.14-8.91,5.06-16.41,10.55-23.28c5.48-6.85,12.32-12.08,19.7-16.69
		c10.65-6.64,22.18-11.32,34.16-14.84c6.05-1.78,12.27-3.05,18.46-4.32C100.52,6.18,113.22,5.55,129.19,5.2z M126.2,124.46
		c5.34-0.36,10.89-0.52,16.39-1.17c6.64-0.78,13.32-1.6,19.82-3.12c6.39-1.49,12.67-3.6,18.81-5.94
		c11.16-4.26,21.28-10.28,29.31-19.33c5.04-5.68,8.48-12.1,9.31-19.84c0.72-6.75-0.93-12.91-4.17-18.65
		c-4.18-7.43-10.42-13.01-17.43-17.65c-10.58-7.01-22.34-11.36-34.61-14.34c-8.67-2.11-17.47-3.54-26.39-4
		c-10.67-0.55-21.35-0.67-31.94,1c-6.24,0.99-12.45,2.17-18.62,3.54c-7.74,1.73-15.21,4.33-22.34,7.84
		c-9.12,4.49-17.58,9.92-24.08,17.92c-5.71,7.03-8.98,14.86-8.13,24.18c0.63,6.84,3.37,12.73,7.51,17.98
		c5.41,6.85,12.31,11.96,19.92,16.17c7.75,4.29,15.91,7.6,24.53,9.6c7.33,1.7,14.69,3.43,22.13,4.48
		C112.76,124.05,119.4,124.04,126.2,124.46z"/>
	<path class="st1" d="M135.42,85.47h3.78l3.65-17.1l3.71,12.92h2.11l9.24-12.92l-3.65,17.1h3.78l5.05-23.76h-3.98L148.71,76.2
		l-4.18-14.49h-4.05L135.42,85.47z M128.06,74.29h5.62l0.5-2.74h-5.62L128.06,74.29z M127.32,85.47h4.65l-9.77-14.05
		c-0.51-0.75-0.92-1.38-1.22-1.88c-0.3-0.51-0.51-0.94-0.64-1.3c-0.12-0.36-0.18-0.7-0.18-1.01c0-0.52,0.16-1.01,0.47-1.45
		c0.31-0.45,0.72-0.8,1.24-1.08c0.51-0.27,1.06-0.41,1.64-0.41c0.78,0,1.48,0.27,2.09,0.8c0.61,0.54,1.07,1.24,1.36,2.11l2.54-1.77
		c-0.29-0.85-0.71-1.56-1.27-2.13c-0.56-0.57-1.19-1-1.91-1.31c-0.71-0.3-1.49-0.45-2.34-0.45c-1.27,0-2.47,0.28-3.58,0.84
		c-1.12,0.56-2.01,1.31-2.68,2.25c-0.67,0.94-1,2.01-1,3.22c0,0.51,0.08,1.03,0.25,1.57c0.17,0.54,0.43,1.13,0.79,1.77
		c0.36,0.64,0.81,1.37,1.37,2.18L127.32,85.47z M122.45,84.64c1.35-0.66,2.63-1.61,3.83-2.84c1.2-1.23,2.25-2.72,3.13-4.46
		c0.88-1.74,1.53-3.67,1.96-5.79h-3.15c-0.29,1.63-0.74,3.12-1.34,4.48c-0.6,1.36-1.32,2.55-2.14,3.56
		c-0.83,1.01-1.71,1.79-2.64,2.34s-1.89,0.82-2.84,0.82c-0.87,0-1.61-0.27-2.21-0.81c-0.6-0.54-0.9-1.31-0.9-2.32
		c0-0.86,0.23-1.62,0.7-2.31c0.47-0.68,1.13-1.32,1.99-1.93c0.86-0.6,1.87-1.21,3.03-1.83l-1.67-2.28c-0.94,0.55-1.86,1.12-2.76,1.7
		c-0.9,0.58-1.72,1.22-2.46,1.9c-0.74,0.68-1.32,1.44-1.76,2.28c-0.44,0.84-0.65,1.81-0.65,2.91c0,1.01,0.24,1.95,0.72,2.79
		c0.48,0.85,1.15,1.52,2.01,2.02c0.86,0.5,1.89,0.74,3.1,0.74C119.75,85.63,121.1,85.3,122.45,84.64z M105.2,85.47h3.15l2.58-12.05
		h-7.83l-0.64,2.81h4.68L105.2,85.47z M102.53,84.78c1.25-0.57,2.49-1.46,3.71-2.66l0.8-3.81c-1.23,1.34-2.45,2.33-3.68,2.98
		c-1.23,0.65-2.45,0.97-3.68,0.97c-1.14,0-2.13-0.31-2.96-0.92c-0.84-0.61-1.48-1.43-1.92-2.44c-0.45-1.01-0.67-2.16-0.67-3.43
		c0-1.34,0.23-2.63,0.7-3.87c0.47-1.24,1.12-2.36,1.96-3.38c0.84-1.01,1.8-1.82,2.88-2.41c1.08-0.59,2.23-0.89,3.43-0.89
		c1.32,0,2.44,0.32,3.36,0.97c0.93,0.65,1.54,1.62,1.86,2.91l3.28-2.07c-0.42-1.56-1.27-2.82-2.53-3.76
		c-1.26-0.95-2.97-1.42-5.14-1.42c-1.76,0-3.46,0.38-5.09,1.15c-1.63,0.77-3.09,1.83-4.38,3.18c-1.29,1.35-2.31,2.87-3.05,4.57
		c-0.74,1.7-1.1,3.47-1.1,5.32c0,1.34,0.2,2.6,0.59,3.8c0.39,1.19,0.95,2.24,1.67,3.15c0.72,0.9,1.61,1.62,2.64,2.14
		c1.04,0.52,2.19,0.79,3.46,0.79C99.99,85.63,101.28,85.35,102.53,84.78z"/>
</g>
</svg>